# xmcd CD database file
#
# Track frame offsets:
#	150
#	19082
#	38032
#	62332
#	76339
#	92555
#	113266
#	142308
#	157017
#	179479
#	201226
#	220405
#
# Disc length: 3167 seconds
#
# Revision: 0
# Processed by: cddbd v1.5.2PL0 Copyright (c) Steve Scherf et al.
# Submitted via: CDex 1.70beta2
#
DISCID=a00c5d0c
DTITLE=Alte Wache - Dixieland aus Potsdam - Volume 2
DYEAR=2004
DGENRE=Jazz
TTITLE0=Muskrat Ramble
TTITLE1=The World Is Waitung For The Sunrise
TTITLE2=Creole Love Call
TTITLE3=Creole Kazz
TTITLE4=Sheik Of Araby
TTITLE5=Dr. Jazz
TTITLE6=Tin Roof Blues
TTITLE7=Mein kleiner güner Kaktus
TTITLE8=Moskauer Abende (Midnight In Moskau)
TTITLE9=I Can't Give You
TTITLE10=China Town
TTITLE11=Some Of These Days
EXTD=YEAR: 2004
EXTT0=
EXTT1=
EXTT2=
EXTT3=
EXTT4=
EXTT5=
EXTT6=
EXTT7=
EXTT8=
EXTT9=
EXTT10=
EXTT11=
PLAYORDER=
